<svg version="1" xmlns="http://www.w3.org/2000/svg" width="438.667" height="438.667" viewBox="0 0 329.000000 329.000000"><path d="M139.8 15.5c-.2.2-3.4.6-7.3 1-3.8.4-7.3.9-7.6 1.1-.4.2-2.4.6-4.5 1-5.5.8-10.7 2.1-19.4 5C52.3 39.8 16.6 78.2 5 126.8 4 131.1 2.8 137 2.4 140c-1 6.8-1 39.8-.1 46 8.5 55 45.5 98.6 98.8 116.4 9.2 3 18.3 5.2 30.9 7.2 8 1.3 37.8 1.2 48-.2 34.3-4.6 61.9-17.5 84.3-39.4l9.9-9.7-7.3-6.9c-4-3.8-7.8-7.4-8.5-7.9-.6-.6-6.2-5.7-12.4-11.5-15.8-14.7-13.8-14-20.7-7.2-14.6 14.6-30.7 23.1-48.8 26.1-29.8 4.8-57.9-2.4-79.4-20.5-10.5-8.9-22-28.2-26.2-44.4-1.9-7.2-2.3-11-2.2-25 0-14.5.3-17.7 2.5-26.1 3-11 8.6-22.8 15.1-31.4C102 84.7 128 72.2 156.7 71.7c27.3-.4 48.6 7.8 67.5 26.1 3.6 3.5 6.9 6.4 7.3 6.4.7 0 12.5-10.6 35.8-32.4l6.9-6.3-8.2-8.3c-22.4-22.5-48.7-35-85.5-40.8-4.3-.7-40.1-1.5-40.7-.9z"/><path d="M151 98.7c-1.4.2-5.4 1.3-9 2.4-20.3 6.4-36.1 22.8-41.9 43.8-3 10.8-2.4 25.8 1.4 36.1 6.8 18.5 19.8 31.6 38 38.6 9.3 3.5 25.9 4.4 35.3 2 11.9-3.1 22.4-9 30.6-17.2 3.6-3.6 11.3-15.4 12.8-19.4.5-1.7 1.3-3.1 1.6-3.1.4-.1 10.5-.2 22.5-.3l21.7-.1.1 2.5c.1 1.4.1 10.7.1 20.8V223h20.9c19.2 0 20.9-.1 21-1.8 0-.9.1-10.3.2-20.7l.2-19h20l.3-20.4c.1-11.8-.1-20.7-.7-21-.5-.3-24.7-.6-53.8-.5l-52.9.1-1.8-4.4c-6.4-15.3-21-28.4-38.6-34.4-6.2-2.1-21.3-3.3-28-2.2zm18 43.1c13.3 5.5 16.1 25.7 4.7 34.8-4 3.1-5.1 3.5-12.7 4.1-19.3 1.5-28.6-24.4-12.9-36.1 2.1-1.7 4.9-3.1 6.1-3.3 1.2-.2 2.4-.6 2.7-.9.8-.8 9.1.2 12.1 1.4z"/></svg>